<svg xmlns="http://www.w3.org/2000/svg" version="1.1" xmlns:xlink="http://www.w3.org/1999/xlink" xmlns:svgjs="http://svgjs.com/svgjs" width="960" height="1706" preserveAspectRatio="none" viewBox="0 0 960 1706"><g mask="url(&quot;#SvgjsMask1036&quot;)" fill="none"><rect width="960" height="1706" x="0" y="0" fill="rgba(146, 186, 243, 1)"></rect><path d="M0,419.902C79.803,414.208,151.087,381.393,224.138,348.766C310.096,310.375,416.973,293.349,464.846,212.288C513.274,130.287,495.743,24.116,470.021,-67.579C446.248,-152.326,376.702,-210.54,326.045,-282.52C268.605,-364.138,250.071,-498.539,152.373,-518.934C52.56,-539.77,-10.849,-398.633,-109.662,-373.475C-214.713,-346.729,-347.75,-443.676,-428.272,-371.1C-505.866,-301.163,-452.985,-169.435,-451.936,-64.979C-451.049,23.352,-459.598,112.781,-422.607,192.998C-385.692,273.049,-323.347,340.589,-245.682,382.289C-171.18,422.29,-84.347,425.92,0,419.902" fill="#196de4"></path><path d="M960 2057.292C1043.459 2054.968 1129.356 2123.1639999999998 1203.791 2085.346 1278.01 2047.638 1302.594 1952.708 1324.128 1872.292 1343.312 1800.65 1316.433 1728.468 1319.203 1654.354 1322.7730000000001 1558.823 1394.866 1454.491 1342.738 1374.356 1291.923 1296.24 1173.644 1307.7060000000001 1082.161 1289.9569999999999 999.009 1273.825 916.1610000000001 1256.5819999999999 833.6179999999999 1275.5819999999999 747.773 1295.342 655.008 1326.113 606.277 1399.497 558.5830000000001 1471.32 588.1700000000001 1565.798 583.723 1651.899 579.74 1729.012 560.953 1804.42 581.521 1878.846 604.5129999999999 1962.046 629.249 2062.359 707.325 2099.17 786.143 2136.331 872.895 2059.717 960 2057.292" fill="#ffffff"></path></g><defs><mask id="SvgjsMask1036"><rect width="960" height="1706" fill="#ffffff"></rect></mask></defs></svg>